<?xml version="1.0" encoding="iso-8859-1"?>
<!-- Generator: Adobe Illustrator 23.1.1, SVG Export Plug-In . SVG Version: 6.00 Build 0)  -->
<svg version="1.1" id="_x31_-outline-expand" xmlns="http://www.w3.org/2000/svg" xmlns:xlink="http://www.w3.org/1999/xlink"
	 x="0px" y="0px" viewBox="0 0 64 64" style="enable-background:new 0 0 64 64;" xml:space="preserve">
<polygon style="fill:#4F5559;" points="44,61 32,61 32,3 46,3 53,17 "/>
<polygon style="fill:#62C4C3;" points="34,61 14,61 5,17 12,3 36,3 43,17 "/>
<path style="fill:#3A4249;" d="M24,8c-4.963,0-9,4.037-9,9v5c0,0.553,0.447,1,1,1h1v2h2v-2h2v2h2v-2h2v2h2v-2h2v2h2v-2h1
	c0.553,0,1-0.447,1-1v-5C33,12.037,28.963,8,24,8 M31,21H17v-4c0-3.859,3.141-7,7-7c3.859,0,7,3.141,7,7V21z"/>
<path style="fill:#3A4249;" d="M27,13h-2v2c0,0.266,0.105,0.52,0.293,0.707l1,1l1.414-1.414L27,14.586V13z"/>
<path style="fill:#3A4249;" d="M21,14.586l-0.707,0.707l1.414,1.414l1-1C22.895,15.52,23,15.266,23,15v-2h-2V14.586z"/>
<path style="fill:#3A4249;" d="M28,28h-8c-1.103,0-2-0.897-2-2h-2c0,2.206,1.794,4,4,4h8c2.206,0,4-1.794,4-4h-2
	C30,27.103,29.103,28,28,28"/>
<path style="fill:#F2DAAE;" d="M59,48c0,7.18-5.82,13-13,13c-7.18,0-13-5.82-13-13s5.82-13,13-13C53.18,35,59,40.82,59,48"/>
<path style="fill:#D36767;" d="M51,48c0,2.762-2.238,5-5,5c-2.762,0-5-2.238-5-5s2.238-5,5-5C48.762,43,51,45.238,51,48"/>
<path style="fill:#3A4249;" d="M53.428,51.134l-1.811-1.045C51.86,49.437,52,48.735,52,48s-0.14-1.437-0.383-2.089l1.811-1.045
	l0.5,0.866l1.732-1l-2-3.464l-1.732,1l0.5,0.866l-1.807,1.044c-0.899-1.085-2.174-1.843-3.621-2.088V40h1v-2h-4v2h1v2.09
	c-1.447,0.245-2.722,1.003-3.621,2.088l-1.807-1.044l0.5-0.866l-1.732-1l-2,3.464l1.732,1l0.5-0.866l1.811,1.045
	C40.14,46.563,40,47.265,40,48s0.14,1.437,0.383,2.089l-1.811,1.045l-0.5-0.866l-1.732,1l2,3.464l1.732-1l-0.5-0.866l1.807-1.044
	c0.899,1.085,2.174,1.843,3.621,2.088V56h-1v2h4v-2h-1v-2.09c1.447-0.245,2.722-1.003,3.621-2.088l1.807,1.044l-0.5,0.866l1.732,1
	l2-3.464l-1.732-1L53.428,51.134z M46,52c-2.206,0-4-1.794-4-4s1.794-4,4-4c2.206,0,4,1.794,4,4S48.206,52,46,52"/>
<path style="fill:#3A4249;" d="M50.401,34.72l3.578-17.52c0.045-0.22,0.015-0.447-0.084-0.647l-7-14C46.725,2.214,46.379,2,46,2H12
	c-0.379,0-0.725,0.214-0.895,0.553l-7,14c-0.099,0.2-0.129,0.428-0.084,0.647l9,44C13.115,61.666,13.525,62,14,62h32
	c7.72,0,14-6.28,14-14C60,41.819,55.97,36.57,50.401,34.72 M51.951,17.139l-3.49,17.091C47.66,34.088,46.841,34,46,34
	c-2.036,0-3.966,0.446-5.713,1.231L43.979,17.2c0.045-0.219,0.015-0.447-0.084-0.647L37.618,4h7.764L51.951,17.139z M33.184,60
	H14.816L6.049,17.138L12.618,4H34h1.382l6.569,13.138l-3.973,19.406C34.369,39.079,32,43.265,32,48c0,2.71,0.787,5.233,2.125,7.38
	L33.184,60z M35.224,60l0.511-2.512c0.905,0.978,1.944,1.824,3.091,2.512H35.224z M46,60c-6.617,0-12-5.383-12-12s5.383-12,12-12
	c6.617,0,12,5.383,12,12S52.617,60,46,60"/>
<rect x="24" y="56" style="fill:#3A4249;" width="2" height="2"/>
<rect x="20" y="56" style="fill:#3A4249;" width="2" height="2"/>
<rect x="16" y="56" style="fill:#3A4249;" width="2" height="2"/>
</svg>
