<?xml version="1.0" encoding="utf-8"?>
<!-- Generator: Adobe Illustrator 24.0.2, SVG Export Plug-In . SVG Version: 6.00 Build 0)  -->
<svg version="1.1" id="Layer_1" xmlns="http://www.w3.org/2000/svg" xmlns:xlink="http://www.w3.org/1999/xlink" x="0px" y="0px"
	 viewBox="0 0 512 512" style="enable-background:new 0 0 512 512;" xml:space="preserve">
<style type="text/css">
	.st0{fill:#C2EEFF;}
	.st1{fill:#0F4767;}
	.st2{fill:#EFAF85;}
	.st3{fill:url(#SVGID_1_);}
	.st4{fill:#393E49;}
	.st5{fill:#D5C0BF;}
	.st6{fill:#202B53;}
	.st7{fill:none;stroke:#202B53;stroke-width:3.4388;stroke-linecap:round;stroke-miterlimit:10;}
	.st8{fill:#ECD3D3;}
	.st9{fill:none;stroke:#D5C0BF;stroke-width:3.4388;stroke-miterlimit:10;}
	.st10{opacity:0.5;fill:#D3ECFB;}
	.st11{fill:#FFFFFF;}
	.st12{fill:#E5332A;}
</style>
<path class="st0" d="M469.3514,422.8405c0,20.9678-16.9734,37.935-37.9169,37.935c-20.9466,0-37.9262-16.9671-37.9262-37.935
	c0-20.9435,16.9796-37.8988,37.9262-37.8988C452.378,384.9417,469.3514,401.8969,469.3514,422.8405z"/>
<path class="st0" d="M451.954,407.4833c0,11.332-9.1881,20.5287-20.5195,20.5287l0,0c-11.3345,0-20.5226-9.1967-20.5226-20.5287
	v-97.4417c0-11.3471,9.1881-20.5232,20.5226-20.5232l0,0c11.3314,0,20.5195,9.1761,20.5195,20.5232V407.4833z"/>
<path class="st1" d="M325.8502,503.2114c-21.2876-77.8704-59.4213-103.4491-59.4213-103.4491l-48.3395-39.5207
	c-0.168-0.0486-59.2207,0-59.2207,0S98.2766,440.1004,90.54,503.2114H325.8502z"/>
<polygon class="st2" points="158.8687,360.2416 266.429,399.7623 277.3158,299.9661 191.2997,257.9536 171.0545,318.043 "/>
<path class="st2" d="M141.7373,133.0483c21.2664-78.087,65.5691-92.8764,128.7686-93.8369
	c71.4946-1.0861,100.2628,30.1372,110.2558,67.7461c3.937,14.8207,0.4272,42.0581-2.5156,58.1041
	c-2.726,14.8206-5.843,22.1057-6.0748,27.2987c-0.5976,13.4267,8.7584,36.215,17.8028,39.8292
	c2.9428,1.1616,4.1625,8.5111,3.3332,9.8126c-2.2415,3.5348-8.4624,4.6964-12.939,10.3864
	c-7.6599,9.7677-3.6591,19.8274-11.5237,34.7274c-6.1692,11.655-9.3223,29.1099-17.5068,45.1558
	c-5.6657,11.1185-40.2101,17.8459-61.6964,9.0694c-46.6414-19.0349-122.8437-41.857-136.0024-85.2472
	C140.4958,212.7154,136.0167,150.9853,141.7373,133.0483z"/>
<linearGradient id="SVGID_1_" gradientUnits="userSpaceOnUse" x1="279.5033" y1="221.0203" x2="243.5384" y2="92.1201">
	<stop  offset="0.2032" style="stop-color:#EFAF85"/>
	<stop  offset="0.3389" style="stop-color:#EDA37F"/>
	<stop  offset="0.5822" style="stop-color:#E9846F"/>
	<stop  offset="0.6898" style="stop-color:#E77467"/>
</linearGradient>
<path class="st3" d="M375.6724,176.8751c0.8357-3.333,1.723-7.1626,2.5736-11.8135c2.9428-16.046,6.4526-43.2834,2.5156-58.1041
	c-9.993-37.6089-38.7612-68.8321-110.2558-67.7461c-63.1995,0.9605-107.5022,15.7499-128.7686,93.8369
	c-2.5162,7.8891,3.22,67.8567,4.5191,87.4188L375.6724,176.8751z"/>
<path class="st4" d="M106.6384,171.9751c1.5426-66.4445,33.2448-131.2605,83.7771-151.5545
	c97.3599-39.0971,175.3981,37.6577,202.5014,59.6866c18.5802,15.113,17.6228,46.925-12.1552,35.6542
	c-103.4459-39.1428-133.6693,12.0147-133.6693,12.0147s-7.0108,39.1459-6.3701,57.6712
	c0.6339,18.5104-8.1057,39.4383-12.518,36.0596c-8.4073-43.8112-22.0382-38.5877-20.3914-54.5849
	c0.3353-3.147,1.5063,27.2681-1.281,69.8721c0,20.0435-27.0575,74.534-35.4774,81.2489
	C157.2955,292.8027,105.6622,213.9869,106.6384,171.9751z"/>
<path class="st5" d="M368.6034,246.6073c0,0,4.7333,4.0282,13.3418,4.0282c2.3326-3.2695,15.1253-8.8345,9.5964-9.6427
	C389.1447,240.651,368.6034,246.6073,368.6034,246.6073z"/>
<g>
	<path class="st6" d="M364.755,156.194c-1.9759-3.6747-33.5008-2.1865-38.6208-1.226
		c-10.3534,1.9398-22.6728,16.6499-20.9135,18.852c1.7568,2.1864,14.8538-7.984,26.3475-7.1297
		c4.4491,0.3385,26.8078,3.9976,29.7287,2.6955C364.2217,168.0836,366.7373,159.8686,364.755,156.194z"/>
	<path class="st7" d="M325.8502,189.5242c6.6662,14.9456,17.9919,10.9448,23.8869,2.7598"/>
</g>
<path class="st8" d="M266.429,332.2597c0,0-28.497-13.5516-36.1082-21.1021c-7.6179-7.5323-13.5915-43.4851-13.5915-43.4851
	l19.0287,36.6971L266.429,332.2597z"/>
<path class="st2" d="M223.7614,203.3843c-0.5128,20.2147,0.5608,35.3763-14.4366,33.1899
	c-15.0031-2.1685-31.528-16.8023-32.0095-37.0201c-0.534-22.2613,12.0177-31.7965,24.4652-33.1449
	C211.5544,165.3544,224.3347,180.8577,223.7614,203.3843z"/>
<path class="st9" d="M367.6766,289.4548c-6.5289-5.3791-7.8403,3.7996-14.8232-4.388c-7.8402-9.1911-17.3424-6.7885-21.7823-3.9982"
	/>
<g>
	<path class="st10" d="M269.3687,168.053c0,5.4253-3.3606,9.8132-7.5137,9.8132c-4.1475,0-7.5112-4.3879-7.5112-9.8132
		c0-5.4096,7.5112-29.4239,7.5112-29.4239S269.3687,162.6434,269.3687,168.053z"/>
	<g>
		<g>
			<path class="st11" d="M261.855,138.6291c0,0-1.3477,4.2842-3.0833,10.6731c-0.8537,3.1957-1.68,6.9617-2.2901,10.9654
				c-0.5608,3.9676-0.8663,8.4018,0.4453,12.0578c0.4328,0.9762,0.6832,1.5064,1.4638,2.4457
				c0.5521,0.6283,1.1828,1.1741,1.9423,1.4913c1.4733,0.6252,3.3394,0.2254,4.9156-0.6925
				c1.5582-0.8351,2.8759-2.4669,3.1689-3.9827c0.4603-1.683,0.4753-3.4549,0.4171-5.0711
				c-0.1524-3.2569-0.7807-5.9862-1.2346-7.8616c-0.4453-1.8936-0.7869-2.9578-0.7869-2.9578s0.5002,0.9974,1.2321,2.8148
				c0.692,1.8298,1.6251,4.4828,2.1834,7.8647c0.2804,1.6893,0.4178,3.5891,0.0094,5.6444
				c-0.4272,2.287-1.7293,4.0926-3.6386,5.5527c-1.8048,1.394-4.5464,2.4212-7.2725,1.4577
				c-1.3053-0.4421-2.4488-1.3021-3.3819-2.302c-0.6801-0.732-1.5676-2.1378-1.9916-3.2145
				c-1.8262-4.7782-1.2134-9.5752-0.4666-13.7527c0.8051-4.2206,2.159-7.9503,3.3943-11.0879
				C259.3787,142.3981,261.855,138.6291,261.855,138.6291z"/>
		</g>
	</g>
</g>
<g>
	<path class="st10" d="M292.3338,203.43c0,5.4127-3.36,9.7975-7.5074,9.7975c-4.1444,0-7.5106-4.3848-7.5106-9.7975
		c0-5.4253,7.5106-29.4395,7.5106-29.4395S292.3338,198.0047,292.3338,203.43z"/>
	<g>
		<g>
			<path class="st11" d="M284.8264,173.9905c0,0-1.351,4.2874-3.0833,10.6762c-0.8537,3.1957-1.68,6.9647-2.2901,10.9717
				c-0.5608,3.9676-0.8657,8.4043,0.4452,12.0608c0.4366,0.9756,0.6864,1.5064,1.4639,2.4457
				c0.5551,0.6339,1.1834,1.1765,1.9453,1.4938c1.4702,0.6252,3.3394,0.2261,4.9156-0.692c1.5557-0.8387,2.8759-2.4732,3.1627-3.992
				c0.4572-1.68,0.4759-3.4548,0.4146-5.0742c-0.1523-3.2569-0.7806-5.9861-1.2352-7.8641
				c-0.4421-1.8942-0.7831-2.9584-0.7831-2.9584s0.4995,0.9973,1.2315,2.8179c0.6926,1.8298,1.6225,4.486,2.1802,7.8677
				c0.2835,1.6893,0.4209,3.5891,0.0125,5.6445c-0.424,2.287-1.723,4.095-3.6322,5.5589c-1.8049,1.3965-4.5466,2.4244-7.2757,1.4607
				c-1.3053-0.4421-2.4489-1.3021-3.3788-2.3058c-0.6832-0.7313-1.5675-2.1371-1.9941-3.2137
				c-1.8298-4.7782-1.2141-9.5784-0.4696-13.759c0.8051-4.2205,2.1621-7.9503,3.3968-11.0879
				C282.3501,177.7625,284.8264,173.9905,284.8264,173.9905z"/>
		</g>
	</g>
</g>
<path class="st12" d="M418.4806,340.5847v57.1404c0,7.1727,5.7969,12.9665,12.9539,12.9665c7.1539,0,12.9508-5.7938,12.9508-12.9665
	v-57.1404H418.4806z"/>
<path class="st12" d="M460.2457,422.8405c0,15.9304-12.8996,28.8231-28.8112,28.8231c-15.9148,0-28.8143-12.8927-28.8143-28.8231
	c0-15.9061,12.8996-28.7988,28.8143-28.7988C447.3461,394.0417,460.2457,406.9344,460.2457,422.8405z"/>
</svg>
